<svg width="32" height="32" viewBox="0 0 32 32" fill="none" xmlns="http://www.w3.org/2000/svg">
<path d="M18.6667 12H24M24 8H20M8 24L14 20L17.3333 22.6667L24 17.3333M11.3333 14.6667C12.2174 14.6667 13.0652 14.3155 13.6904 13.6904C14.3155 13.0652 14.6667 12.2174 14.6667 11.3333C14.6667 10.4493 14.3155 9.60143 13.6904 8.97631C13.0652 8.35119 12.2174 8 11.3333 8C10.4493 8 9.60143 8.35119 8.97631 8.97631C8.35119 9.60143 8 10.4493 8 11.3333C8 12.2174 8.35119 13.0652 8.97631 13.6904C9.60143 14.3155 10.4493 14.6667 11.3333 14.6667Z" stroke="#3D9BE9" stroke-width="2" stroke-linecap="round" stroke-linejoin="round"/>
<path d="M28 27.2V4.8C28 4.58783 27.9157 4.38434 27.7657 4.23431C27.6157 4.08429 27.4122 4 27.2 4H4.8C4.58783 4 4.38434 4.08429 4.23431 4.23431C4.08428 4.38434 4 4.58783 4 4.8V27.2C4 27.4122 4.08428 27.6157 4.23431 27.7657C4.38434 27.9157 4.58783 28 4.8 28H27.2C27.4122 28 27.6157 27.9157 27.7657 27.7657C27.9157 27.6157 28 27.4122 28 27.2Z" stroke="#3D9BE9" stroke-width="2"/>
</svg>
