<svg width="32" height="32" viewBox="0 0 32 32" fill="none" xmlns="http://www.w3.org/2000/svg">
<path d="M16 22C14.8133 22 13.6533 21.6481 12.6666 20.9888C11.6799 20.3295 10.9109 19.3925 10.4567 18.2961C10.0026 17.1997 9.88378 15.9933 10.1153 14.8295C10.3468 13.6656 10.9182 12.5965 11.7574 11.7574C12.5965 10.9182 13.6656 10.3468 14.8295 10.1153C15.9933 9.88378 17.1997 10.0026 18.2961 10.4567C19.3925 10.9109 20.3295 11.6799 20.9888 12.6666C21.6481 13.6533 22 14.8133 22 16C21.9981 17.5907 21.3654 19.1158 20.2406 20.2406C19.1158 21.3654 17.5907 21.9981 16 22ZM16 12C15.2089 12 14.4355 12.2346 13.7777 12.6741C13.1199 13.1136 12.6072 13.7384 12.3045 14.4693C12.0017 15.2002 11.9225 16.0044 12.0769 16.7804C12.2312 17.5563 12.6122 18.269 13.1716 18.8284C13.731 19.3878 14.4437 19.7688 15.2196 19.9231C15.9956 20.0775 16.7998 19.9983 17.5307 19.6955C18.2616 19.3928 18.8864 18.8801 19.3259 18.2223C19.7654 17.5645 20 16.7911 20 16C19.9987 14.9395 19.5768 13.9229 18.827 13.173C18.0771 12.4232 17.0605 12.0013 16 12Z" fill="#3D9BE9"/>
<path d="M16.0001 26C14.5935 25.9991 13.2029 25.7019 11.9187 25.1278C10.6346 24.5537 9.4858 23.7156 8.54712 22.668L10.0371 21.334C10.9268 22.3285 12.0511 23.0846 13.3077 23.5336C14.5643 23.9826 15.9132 24.1101 17.2317 23.9045C18.5502 23.699 19.7963 23.1669 20.8565 22.3567C21.9168 21.5466 22.7576 20.484 23.3024 19.2659C23.8471 18.0478 24.0785 16.7128 23.9755 15.3824C23.8725 14.052 23.4383 12.7685 22.7125 11.6487C21.9867 10.529 20.9924 9.60858 19.82 8.9713C18.6477 8.33403 17.3345 8.00012 16.0001 8V6C18.6523 6 21.1958 7.05357 23.0712 8.92893C24.9466 10.8043 26.0001 13.3478 26.0001 16C26.0001 18.6522 24.9466 21.1957 23.0712 23.0711C21.1958 24.9464 18.6523 26 16.0001 26Z" fill="#3D9BE9"/>
<path d="M16 30C13.2311 30 10.5243 29.1789 8.22202 27.6406C5.91973 26.1022 4.12532 23.9157 3.06569 21.3576C2.00607 18.7994 1.72882 15.9845 2.26901 13.2687C2.80921 10.553 4.14258 8.05845 6.10051 6.10051C8.05845 4.14258 10.553 2.80921 13.2687 2.26901C15.9845 1.72882 18.7994 2.00607 21.3576 3.06569C23.9157 4.12532 26.1022 5.91973 27.6406 8.22202C29.1789 10.5243 30 13.2311 30 16C29.9958 19.7117 28.5194 23.2702 25.8948 25.8948C23.2702 28.5194 19.7117 29.9958 16 30ZM16 4.00001C13.6266 4.00001 11.3066 4.70379 9.33316 6.02237C7.35977 7.34095 5.8217 9.21509 4.91345 11.4078C4.0052 13.6005 3.76756 16.0133 4.23058 18.3411C4.69361 20.6689 5.83649 22.8071 7.51472 24.4853C9.19296 26.1635 11.3312 27.3064 13.6589 27.7694C15.9867 28.2325 18.3995 27.9948 20.5922 27.0866C22.7849 26.1783 24.6591 24.6402 25.9776 22.6668C27.2962 20.6935 28 18.3734 28 16C27.9963 12.8185 26.7308 9.76845 24.4812 7.51882C22.2316 5.26918 19.1815 4.00371 16 4.00001Z" fill="#3D9BE9"/>
</svg>
